<svg enable-background="new 0 0 71 71" height="71" viewBox="0 0 71 71" width="71" xmlns="http://www.w3.org/2000/svg"><circle cx="35.5" cy="35.5" fill="#909191" r="35"/><g fill="#fff"><path d="m48.4 35.2v-7.6c1 .4 1.7 1.3 2 2.3.3.8 1.1 1.3 2 1 .8-.3 1.3-1.1 1-2-.7-2.3-2.6-4-5-4.6v-2.3c0-.9-.7-1.6-1.6-1.6s-1.6.7-1.6 1.6v2.3c-3 .7-5.2 3.5-5.2 6.6 0 3.9 2.8 5.4 5.3 6.4v7.6c-1.3-.6-2.2-1.9-2.2-3.4 0-.9-.7-1.6-1.6-1.6s-1.6.7-1.6 1.6c0 3.2 2.2 5.9 5.3 6.7v2.3c0 .9.7 1.6 1.6 1.6s1.6-.7 1.6-1.6v-2.3c3.1-.7 5.3-3.5 5.3-6.7 0-3.9-2.8-5.3-5.3-6.3zm-5.3-4.2c0-1.5.9-2.8 2.2-3.4v6.4c-1.6-.8-2.2-1.5-2.2-3zm5.3 14v-6.4c1.5.7 2.2 1.5 2.2 3-.1 1.4-.9 2.7-2.2 3.4z"/><path d="m28.7 26c-.4-1.1-1.4-1.8-2.5-1.8-1.1 0-2.1.7-2.5 1.8l-8.3 22.2c-.3.8.2 1.7 1 1.9s1.6-.1 1.9-.9l3.3-8.7h9.3l3.2 8.7c.2.6.8 1 1.5 1 .2 0 .4 0 .5-.1.8-.3 1.2-1.2.9-2zm-6 11.5 3.5-9.4 3.5 9.4z"/></g></svg>