<svg enable-background="new 0 0 71 71" height="71" viewBox="0 0 71 71" width="71" xmlns="http://www.w3.org/2000/svg"><circle cx="35.5" cy="35.5" fill="#909191" r="35"/><path d="m44.6 34.1c1.9-1.5 3.1-3.9 3.1-6.5v-1.1c0-4.6-3.8-8.4-8.4-8.4h-2.1v-5c0-.9-.7-1.5-1.5-1.5-.9 0-1.5.7-1.5 1.5v5h-8.2c-.9 0-1.5.7-1.5 1.5v14.9 16.4c0 .9.7 1.5 1.5 1.5h8.2v5.5c0 .9.7 1.5 1.5 1.5.9 0 1.5-.7 1.5-1.5v-5.5h2.8c5 0 9.1-4.1 9.1-9.1v-1.3c0-3.3-1.8-6.3-4.5-7.9zm-5.3-13c2.9 0 5.3 2.4 5.3 5.3v1.1c0 2.9-2.4 5.3-5.3 5.3h-2.1v-11.7zm-11.9 0h6.7v11.8h-6.7zm0 28.2v-13.3h6.7v13.3zm18.6-6c0 3.3-2.7 6-6 6h-2.9v-13.3h2.1.8c3.3 0 6 2.7 6 6z" fill="#fff"/></svg>