<svg enable-background="new 0 0 71 71" height="71" viewBox="0 0 71 71" width="71" xmlns="http://www.w3.org/2000/svg" xmlns:xlink="http://www.w3.org/1999/xlink"><linearGradient id="a" gradientTransform="matrix(511.9455 0 0 -512.0051 8338631 20996370)" gradientUnits="userSpaceOnUse" x1="-16283.7031" x2="-16283.7031" y1="41008.07420000001" y2="41007.9375"><stop offset="0" stop-color="#f9aa4b"/><stop offset="1" stop-color="#f7931a"/></linearGradient><g transform="scale(.015625)"><path d="m4434.9 2808c-299.2 1200-1514.8 1930.3-2715 1631.1-1199.8-299.2-1930.2-1514.7-1630.8-2714.6 299.1-1200.1 1514.6-1930.5 2714.5-1631.3 1200.2 299.1 1930.6 1514.7 1631.3 2714.8z" fill="url(#a)"/><path d="m3249.4 1947c44.6-298.1-182.4-458.3-492.7-565.2l100.7-403.8-245.8-61.2-98 393.1c-64.6-16.1-131-31.3-196.9-46.3l98.7-395.7-245.7-61.2-100.7 403.6c-53.5-12.2-106-24.2-157-36.9l.3-1.3-339-84.6-65.4 262.5s182.4 41.8 178.5 44.4c99.6 24.8 117.5 90.7 114.5 142.9l-114.7 460c6.9 1.8 15.8 4.3 25.6 8.2-8.2-2-16.9-4.3-26-6.4l-160.7 644.3c-12.2 30.2-43.1 75.6-112.6 58.4 2.5 3.6-178.7-44.6-178.7-44.6l-122 281.3 319.9 79.7c59.5 14.9 117.8 30.5 175.2 45.2l-101.7 408.4 245.5 61.2 100.7-404c67.1 18.2 132.2 35 195.9 50.8l-100.4 402.2 245.8 61.2 101.7-407.6c419.1 79.3 734.3 47.3 867-331.7 106.9-305.2-5.3-481.2-225.8-596 160.5-37.1 281.5-142.7 313.8-360.9zm-561.6 787.4c-76 305.2-589.9 140.2-756.5 98.8l135-541c166.6 41.6 700.9 124 621.5 442.2zm76-791.8c-69.3 277.6-497.1 136.6-635.8 102l122.4-490.7c138.7 34.6 585.6 99.1 513.4 388.7z" fill="#fff"/></g></svg>