<svg enable-background="new 0 0 44.4 45" height="45" viewBox="0 0 44.4 45" width="44.4" xmlns="http://www.w3.org/2000/svg"><g fill="#c4c9cc"><path d="m1114 319.3h13.2v11.6h-13.2z"/><path d="m1114 339.5h13.2v11.6h-13.2z"/><path d="m1114 359.7h13.2v11.6h-13.2z"/><path d="m1135.4 319.3h13.2v11.6h-13.2z"/><path d="m1135.4 339.5h13.2v11.6h-13.2z"/><path d="m1135.4 359.7h13.2v11.6h-13.2z"/><path d="m1156.8 319.3h13.2v11.6h-13.2z"/><path d="m1156.8 339.5h13.2v11.6h-13.2z"/><path d="m1156.8 359.7h13.2v11.6h-13.2z"/><path d="m43.7 5.4-4.4-4.5-17.1 17.1-17.1-17.1-4.4 4.5 17.1 17-17.1 17.1 4.4 4.4 17.1-17 17.1 17 4.4-4.4-17.1-17.1z"/></g></svg>