<svg height="258.17" viewBox="0 0 282.96 258.17" width="282.96" xmlns="http://www.w3.org/2000/svg" xmlns:xlink="http://www.w3.org/1999/xlink"><linearGradient id="a" gradientTransform="matrix(-1 0 0 1 207.78 0)" gradientUnits="userSpaceOnUse" x1="70.66" x2="209.37" y1="89.83" y2="365.62"><stop offset="0" stop-color="#fbe72a"/><stop offset="1" stop-color="#d99800"/></linearGradient><linearGradient id="b" gradientTransform="matrix(-1 0 0 1 207.78 0)" gradientUnits="userSpaceOnUse" x1="-67.92" x2="16.09" y1="153.34" y2="263.93"><stop offset="0" stop-color="#fbd52a"/><stop offset=".23" stop-color="#f7ce25"/><stop offset=".57" stop-color="#ecbb18"/><stop offset=".96" stop-color="#db9b02"/><stop offset="1" stop-color="#d99800"/></linearGradient><linearGradient id="c" gradientTransform="matrix(-.48 -.52 -.52 .47 106.19 -5.97)" gradientUnits="userSpaceOnUse" x1="-254.07" x2="-189.29" y1="-116.42" y2="-42.1"><stop offset="0" stop-color="#ff5469"/><stop offset=".21" stop-color="#fd5065"/><stop offset=".43" stop-color="#f64359"/><stop offset=".66" stop-color="#eb2e45"/><stop offset=".89" stop-color="#dc1029"/><stop offset="1" stop-color="#d4001a"/></linearGradient><radialGradient id="d" cx="160.32" cy="271.63" fx="152.637035" gradientTransform="matrix(-.9999744 .00715579 -.00071558 -.09999744 302.92 271.5)" gradientUnits="userSpaceOnUse" r="139.83"><stop offset="0" stop-color="#aeb3c0"/><stop offset=".8" stop-color="#eeeff2"/><stop offset="1" stop-color="#fff"/></radialGradient><path d="m51.69 34.38a47.48 47.48 0 0 1 51.89-1.68l125.83 77.87c5.53 4 7.68 9.78 7.52 15.81a18.59 18.59 0 0 1 -7.52 13.84l-125.86 81.39c-21.7 13.23-43.23 4.71-51.59-1.42-12-7.75-20.9-22.55-20.92-39.14v-107.87a48.14 48.14 0 0 1 20.65-38.8z" fill="url(#a)" transform="translate(-17.9 -25.76)"/><path d="m278.85 224.8a21.89 21.89 0 0 1 -24.85 1.44l-55.9-30.61a9.06 9.06 0 0 1 -4.34-7.29 9.84 9.84 0 0 1 4.34-8.74l55.36-37.72a21.65 21.65 0 0 1 23.51-.12c1.89 1.21 9.79 6.4 10.32 18.47v46.59a22.21 22.21 0 0 1 -8.44 17.98z" fill="url(#b)" transform="translate(-17.9 -25.76)"/><circle cx="263.15" cy="71.45" fill="url(#c)" r="24.11" transform="matrix(.67430239 -.73845534 .73845534 .67430239 15.04 191.83)"/><ellipse cx="141.48" cy="243.28" fill="url(#d)" rx="141.48" ry="14.89"/></svg>