<svg enable-background="new 0 0 54.3 33.3" height="33.3" viewBox="0 0 54.3 33.3" width="54.3" xmlns="http://www.w3.org/2000/svg"><g fill="#c4c9cc"><path d="m1114 319.3h13.2v11.6h-13.2z"/><path d="m1114 339.5h13.2v11.6h-13.2z"/><path d="m1114 359.7h13.2v11.6h-13.2z"/><path d="m1135.4 319.3h13.2v11.6h-13.2z"/><path d="m1135.4 339.5h13.2v11.6h-13.2z"/><path d="m1135.4 359.7h13.2v11.6h-13.2z"/><path d="m1156.8 319.3h13.2v11.6h-13.2z"/><path d="m1156.8 339.5h13.2v11.6h-13.2z"/><path d="m1156.8 359.7h13.2v11.6h-13.2z"/></g><path d="m15.6 2.3c-8 0-14.5 6.5-14.5 14.4s6.5 14.4 14.4 14.4 14.5-6.5 14.5-14.4c.1-8-6.4-14.4-14.4-14.4z" fill="#636565"/><path d="m38.7 2.3c-3.8 0-7.4 1.6-10.1 4.1 2.2 2.8 3.6 6.5 3.6 10.4s-1.3 7.5-3.6 10.4c2.7 2.6 6.3 4.1 10.1 4.1 7.9 0 14.4-6.5 14.4-14.4.1-8.2-6.3-14.6-14.4-14.6z" fill="#636565"/></svg>