<svg height="41.35" viewBox="0 0 49.56 41.35" width="49.56" xmlns="http://www.w3.org/2000/svg"><g fill="#c4c9cc"><path d="m40.93 9.61 4.64-4.61" transform="translate(-.19 -.32)"/><path d="m14.75 35.79-5.88 5.88" transform="translate(-.19 -.32)"/><path d="m45.38 4.65-36.71 36.7"/><path d="m42.75 11.15-5.89 5.89"/><path d="m21.68 32.21-4.64 4.65"/><g transform="translate(-.19 -.32)"><path d="m41.08.32-5.08 5.11c-3.41-2-7.12-3.56-11-3.56-13.66 0-24.81 18.27-24.81 18.27a57.09 57.09 0 0 0 9.45 11.62l-5.27 5.24 4.5 4.49 36.7-36.49zm-14.25 14.25a7.54 7.54 0 0 0 -1.83-.31 6.21 6.21 0 0 0 -6.19 6.19 7.54 7.54 0 0 0 .31 1.86l-4.68 4.69a11.46 11.46 0 0 1 -1.86-6.51 12.43 12.43 0 0 1 12.42-12.43 11.46 11.46 0 0 1 6.51 1.86z"/><path d="m42.94 11.47-5.89 5.89a10 10 0 0 1 .31 3.09 12.43 12.43 0 0 1 -12.36 12.4 19.59 19.59 0 0 1 -3.09-.31l-4.65 4.64a16.8 16.8 0 0 0 7.74 1.82c13.63 0 24.78-18.9 24.78-18.9a65.36 65.36 0 0 0 -6.84-8.63z"/></g></g></svg>