<svg enable-background="new 0 0 57.9 55.7" height="55.7" viewBox="0 0 57.9 55.7" width="57.9" xmlns="http://www.w3.org/2000/svg"><g fill="#c4c9cc"><path d="m1114 329h13.2v11.6h-13.2z"/><path d="m1114 349.2h13.2v11.6h-13.2z"/><path d="m1114 369.4h13.2v11.6h-13.2z"/><path d="m1135.4 329h13.2v11.6h-13.2z"/><path d="m1135.4 349.2h13.2v11.6h-13.2z"/><path d="m1135.4 369.4h13.2v11.6h-13.2z"/><path d="m1156.8 329h13.2v11.6h-13.2z"/><path d="m1156.8 349.2h13.2v11.6h-13.2z"/><path d="m1156.8 369.4h13.2v11.6h-13.2z"/><path d="m1 1.6h13.2v11.6h-13.2z"/><path d="m1 21.7h13.2v11.6h-13.2z"/><path d="m1 41.9h13.2v11.6h-13.2z"/><path d="m22.4 1.6h13.2v11.6h-13.2z"/><path d="m22.4 21.7h13.2v11.6h-13.2z"/><path d="m22.4 41.9h13.2v11.6h-13.2z"/><path d="m43.8 1.6h13.2v11.6h-13.2z"/><path d="m43.8 21.7h13.2v11.6h-13.2z"/><path d="m43.8 41.9h13.2v11.6h-13.2z"/></g></svg>