<svg enable-background="new 0 0 57.9 55.7" height="55.7" viewBox="0 0 57.9 55.7" width="57.9" xmlns="http://www.w3.org/2000/svg"><g fill="#c4c9cc"><path d="m1114 329h13.2v11.6h-13.2z"/><path d="m1114 349.2h13.2v11.6h-13.2z"/><path d="m1114 369.4h13.2v11.6h-13.2z"/><path d="m1135.4 329h13.2v11.6h-13.2z"/><path d="m1135.4 349.2h13.2v11.6h-13.2z"/><path d="m1135.4 369.4h13.2v11.6h-13.2z"/><path d="m1156.8 329h13.2v11.6h-13.2z"/><path d="m1156.8 349.2h13.2v11.6h-13.2z"/><path d="m1156.8 369.4h13.2v11.6h-13.2z"/></g><path d="m1 1.9h13.2v11.6h-13.2z" fill="#353535"/><path d="m1 22h13.2v11.6h-13.2z" fill="#353535"/><path d="m1 42.2h13.2v11.6h-13.2z" fill="#353535"/><path d="m22.4 1.9h13.2v11.6h-13.2z" fill="#353535"/><path d="m22.4 22h13.2v11.6h-13.2z" fill="#353535"/><path d="m22.4 42.2h13.2v11.6h-13.2z" fill="#353535"/><path d="m43.8 1.9h13.2v11.6h-13.2z" fill="#353535"/><path d="m43.8 22h13.2v11.6h-13.2z" fill="#353535"/><path d="m43.8 42.2h13.2v11.6h-13.2z" fill="#353535"/></svg>