<svg enable-background="new 0 0 16.1 17.2" height="17.2" viewBox="0 0 16.1 17.2" width="16.1" xmlns="http://www.w3.org/2000/svg"><g fill="#c4c9cc"><path d="m1114 319.3h13.2v11.6h-13.2z"/><path d="m1114 339.5h13.2v11.6h-13.2z"/><path d="m1114 359.7h13.2v11.6h-13.2z"/><path d="m1135.4 319.3h13.2v11.6h-13.2z"/><path d="m1135.4 339.5h13.2v11.6h-13.2z"/><path d="m1135.4 359.7h13.2v11.6h-13.2z"/><path d="m1156.8 319.3h13.2v11.6h-13.2z"/><path d="m1156.8 339.5h13.2v11.6h-13.2z"/><path d="m1156.8 359.7h13.2v11.6h-13.2z"/><ellipse cx="8.1" cy="4.8" rx="4.4" ry="4.3"/><path d="m8.1 9.1c-4.1 0-7.5 3.3-7.5 7.4h15c0-4.1-3.3-7.4-7.5-7.4z"/></g></svg>