<svg enable-background="new 0 0 71 71" height="71" viewBox="0 0 71 71" width="71" xmlns="http://www.w3.org/2000/svg"><circle cx="35.5" cy="35.5" fill="#909191" r="35"/><path d="m54.7 26.2c.8 0 1.5-.7 1.5-1.5 0-.9-.7-1.6-1.5-1.6l-4.7-.1c-1.5-3.9-5.2-6.6-9.6-6.7l-12-.3c-.9 0-1.6.7-1.6 1.5 0 .1 0 .3.1.4 0 .1-.1.3-.1.4l-.1 4.2-5.3-.1c-.9-.1-1.6.7-1.6 1.5 0 .9.7 1.6 1.5 1.6l5.3.1-.1 4.4h-5.2c-.9 0-1.6.7-1.6 1.5 0 .9.7 1.6 1.5 1.6l5.3.1-.1 6.1-.3 16.6c0 .9.7 1.6 1.5 1.6.8 0 1.5-.7 1.5-1.5l.3-15 10.4.2h.2c2.7 0 5.3-1 7.3-2.9 1.3-1.3 2.3-2.8 2.8-4.5l4.4.1c.8 0 1.5-.7 1.5-1.5 0-.9-.7-1.6-1.5-1.6l-3.9-.1.1-3.6c0-.3 0-.6 0-.9zm-24.8-7.1 10.4.2c2.6.1 4.9 1.5 6.2 3.6l-16.7-.3zm15.3 16.8c-1.4 1.4-3.3 2.1-5.3 2.1l-10.4-.2.1-4.6 17.3.4c-.4.9-1 1.7-1.7 2.3zm2.4-9-.1 3.6-17.8-.4.1-4.4 17.7.3c.1.3.1.6.1.9z" fill="#fff"/></svg>