<svg enable-background="new 0 0 52.8 50.8" height="50.8" viewBox="0 0 52.8 50.8" width="52.8" xmlns="http://www.w3.org/2000/svg"><g fill="#c4c9cc"><path d="m1114 329h13.2v11.6h-13.2z"/><path d="m1114 349.2h13.2v11.6h-13.2z"/><path d="m1114 369.4h13.2v11.6h-13.2z"/><path d="m1135.4 329h13.2v11.6h-13.2z"/><path d="m1135.4 349.2h13.2v11.6h-13.2z"/><path d="m1135.4 369.4h13.2v11.6h-13.2z"/><path d="m1156.8 329h13.2v11.6h-13.2z"/><path d="m1156.8 349.2h13.2v11.6h-13.2z"/><path d="m1156.8 369.4h13.2v11.6h-13.2z"/></g><path d="m11.8 23.1h39.6v6.1h-39.6z" fill="#eb2d44"/><path d="m1.4 3.4h50v6.1h-50z" fill="#eb2d44"/><path d="m1.4 41.3h50v6.1h-50z" fill="#eb2d44"/></svg>