<svg enable-background="new 0 0 52.4 47.7" height="47.7" viewBox="0 0 52.4 47.7" width="52.4" xmlns="http://www.w3.org/2000/svg"><g fill="#c4c9cc"><path d="m1113.1 319.3h13.2v11.6h-13.2z"/><path d="m1113.1 339.5h13.2v11.6h-13.2z"/><path d="m1113.1 359.7h13.2v11.6h-13.2z"/><path d="m1134.5 319.3h13.2v11.6h-13.2z"/><path d="m1134.5 339.5h13.2v11.6h-13.2z"/><path d="m1134.5 359.7h13.2v11.6h-13.2z"/><path d="m1155.9 319.3h13.2v11.6h-13.2z"/><path d="m1155.9 339.5h13.2v11.6h-13.2z"/><path d="m1155.9 359.7h13.2v11.6h-13.2z"/></g><path d="m11.5 21.7h39.6v6.1h-39.6z" fill="#bc2848"/><path d="m1.1 2h50v6.1h-50z" fill="#bc2848"/><path d="m1.1 39.9h50v6.1h-50z" fill="#bc2848"/></svg>