<svg enable-background="new 0 0 47.2 47.7" height="47.7" viewBox="0 0 47.2 47.7" width="47.2" xmlns="http://www.w3.org/2000/svg"><g fill="#c4c9cc"><path d="m1114 319.3h13.2v11.6h-13.2z"/><path d="m1114 339.5h13.2v11.6h-13.2z"/><path d="m1114 359.7h13.2v11.6h-13.2z"/><path d="m1135.4 319.3h13.2v11.6h-13.2z"/><path d="m1135.4 339.5h13.2v11.6h-13.2z"/><path d="m1135.4 359.7h13.2v11.6h-13.2z"/><path d="m1156.8 319.3h13.2v11.6h-13.2z"/><path d="m1156.8 339.5h13.2v11.6h-13.2z"/><path d="m1156.8 359.7h13.2v11.6h-13.2z"/></g><path d="m25.4 15.8c-1 0-1.7.8-1.7 1.7s.8 1.7 1.7 1.7c1 0 1.7-.8 1.7-1.7s-.7-1.7-1.7-1.7z" fill="#636565"/><path d="m12.1 21.2c-1 0-1.7.8-1.7 1.7s.8 1.7 1.7 1.7c1 0 1.7-.8 1.7-1.7s-.8-1.7-1.7-1.7z" fill="#636565"/><path d="m20 28.1c-1 0-1.7.8-1.7 1.7s.8 1.7 1.7 1.7 1.7-.8 1.7-1.7-.7-1.7-1.7-1.7z" fill="#636565"/><path d="m23.5.7c-12.7 0-23 10.3-23 23s10.3 23 23 23 23-10.3 23-23-10.3-23-23-23zm13.3 20.6c.3.5.5 1.1.5 1.7 0 1.7-1.4 3.1-3.1 3.1s-3.2-1.4-3.2-3.1c0-.4.1-.7.2-1l-3.5-2.2c-.6.6-1.4.9-2.2.9-.2 0-.4 0-.6-.1l-3 6.8c.8.6 1.3 1.5 1.3 2.5 0 1.7-1.4 3.1-3.1 3.1s-3.1-1.4-3.1-3.1c0-.5.1-1 .4-1.5l-3.4-2.9c-.5.4-1.2.6-1.8.6s-1.2-.2-1.7-.5l-3.6 3.6c-.1.1-.3.2-.5.2s-.4-.1-.5-.2c-.3-.3-.3-.7 0-1l3.6-3.6c-.3-.5-.5-1.1-.5-1.7 0-1.7 1.4-3.1 3.1-3.1s3.1 1.4 3.1 3.1c0 .5-.1 1-.4 1.5l3.4 2.9c.5-.4 1.2-.6 1.8-.6.2 0 .4 0 .6.1l3-6.8c-.8-.6-1.3-1.5-1.3-2.5 0-1.7 1.4-3.1 3.1-3.1s3.1 1.4 3.1 3.1c0 .4-.1.7-.2 1l3.5 2.2c.6-.6 1.4-.9 2.2-.9.6 0 1.2.2 1.7.5l4.4-4.4c.3-.3.7-.3 1 0s.3.7 0 1z" fill="#636565"/><path d="m35.4 21.7c-.3-.3-.8-.5-1.2-.5-1 0-1.7.8-1.7 1.7s.8 1.7 1.7 1.7c1 0 1.7-.8 1.7-1.7 0-.4-.2-.8-.5-1.2z" fill="#636565"/></svg>