<svg enable-background="new 0 0 44.4 38.7" height="38.7" viewBox="0 0 44.4 38.7" width="44.4" xmlns="http://www.w3.org/2000/svg"><g fill="#c4c9cc"><path d="m1114 319.3h13.2v11.6h-13.2z"/><path d="m1114 339.5h13.2v11.6h-13.2z"/><path d="m1114 359.7h13.2v11.6h-13.2z"/><path d="m1135.4 319.3h13.2v11.6h-13.2z"/><path d="m1135.4 339.5h13.2v11.6h-13.2z"/><path d="m1135.4 359.7h13.2v11.6h-13.2z"/><path d="m1156.8 319.3h13.2v11.6h-13.2z"/><path d="m1156.8 339.5h13.2v11.6h-13.2z"/><path d="m1156.8 359.7h13.2v11.6h-13.2z"/></g><path d="m32.2 5.8-5-5-18.9 19.2-7.7-6.4v24.2z" fill="#636565"/><path d="m12.7 32.5 5 5 19-19.1 6.9 7.1v-24.2z" fill="#636565"/></svg>