<svg enable-background="new 0 0 71 71" height="71" viewBox="0 0 71 71" width="71" xmlns="http://www.w3.org/2000/svg"><circle cx="35.5" cy="35.5" fill="#909191" r="35"/><path d="m48.1 19.2h-3.4v-4.8c0-.9-.7-1.5-1.5-1.5s-1.5.7-1.5 1.5v4.8h-9c-.9 0-1.5.7-1.5 1.5 0 .9.7 1.5 1.5 1.5h9v8.1c-2.2-2.5-5.4-4.1-9-4.1-6.7 0-12.1 5.4-12.1 12.1s5.4 12.1 12.1 12.1c3.6 0 6.8-1.6 9-4.1v2.5c0 .9.7 1.5 1.5 1.5s1.5-.7 1.5-1.5v-10.3-16.2h3.4c.9 0 1.5-.7 1.5-1.5.1-.9-.6-1.6-1.5-1.6zm-15.5 28.3c-5 0-9-4.1-9-9 0-5 4.1-9 9-9s9 4.1 9 9c0 5-4.1 9-9 9z" fill="#fff"/></svg>