<svg enable-background="new 0 0 41.7 53.7" height="53.7" viewBox="0 0 41.7 53.7" width="41.7" xmlns="http://www.w3.org/2000/svg"><g fill="#c4c9cc"><path d="m1114 319.3h13.2v11.6h-13.2z"/><path d="m1114 339.5h13.2v11.6h-13.2z"/><path d="m1114 359.7h13.2v11.6h-13.2z"/><path d="m1135.4 319.3h13.2v11.6h-13.2z"/><path d="m1135.4 339.5h13.2v11.6h-13.2z"/><path d="m1135.4 359.7h13.2v11.6h-13.2z"/><path d="m1156.8 319.3h13.2v11.6h-13.2z"/><path d="m1156.8 339.5h13.2v11.6h-13.2z"/><path d="m1156.8 359.7h13.2v11.6h-13.2z"/></g><path clip-rule="evenodd" d="m24.5 47.9 16.4 4.8v-52l-16.4 4.6v9.3h3.7v24h-3.7z" fill="#636565" fill-rule="evenodd"/><path clip-rule="evenodd" d="m10.5 35.2c.4 0 .7 0 1.1-.1 1.5 1.8 3.8 3 6.3 3 4.6 0 8.4-3.9 8.4-8.6 0-4.3-3-7.9-7-8.5-1.6-3.3-4.8-5.7-8.7-5.7-5.3 0-9.6 4.5-9.6 10-.1 5.4 4.2 9.9 9.5 9.9zm13.1-5.8c0 3.3-2.6 5.9-5.7 5.9-1.2 0-2.4-.4-3.3-1.1 3.3-1.6 5.6-5 5.6-9.1 0-.4 0-.9-.1-1.3 2 1 3.5 3.2 3.5 5.6z" fill="#636565" fill-rule="evenodd"/></svg>